<svg width="67" height="63" viewBox="0 0 67 63" fill="none" xmlns="http://www.w3.org/2000/svg">
<g clip-path="url(#clip0)">
<path d="M5.77999 20.22C2.99 17.43 1.38999 9.82002 5.08999 6.12002C8.79 2.42002 16.4 4.02002 19.19 6.81002C21.98 9.60002 19.35 13.61 15.65 17.31C11.94 21.02 8.55999 23.01 5.77999 20.22Z" fill="#A6B0BA"/>
<path d="M62.76 24.06C65.8 21.56 68.14 14.14 64.82 10.1C61.49 6.05002 53.76 6.91002 50.72 9.42002C47.68 11.92 49.9 16.17 53.22 20.21C56.55 24.25 59.72 26.56 62.76 24.06Z" fill="#A6B0BA"/>
<path d="M50.88 9.42C51.86 6.68 51.42 4.57 51.42 4.57C49.11 4.6 46.9 4.71 44.79 4.88C45.41 2.04 44.7 0 44.7 0C28.96 1.68 18.81 6.91 14.02 10.01C13.68 10.23 13.35 10.45 13.02 10.68C11.52 11.71 10.77 12.38 10.77 12.38C4.15 17.86 0 25.77 0 34.57C0 51.14 14.74 59.49 32.93 59.49C51.12 59.49 65.86 51.14 65.86 34.57C65.85 24.04 59.9 14.77 50.88 9.42Z" fill="white"/>
<path d="M63.76 42.76L57.13 36.13C54.45 33.45 50.1 33.45 47.41 36.13C44.73 38.81 44.73 43.16 47.41 45.85L49.51 47.95C54.04 52.48 48.63 54.9 48.63 54.9C48.63 54.9 41.34 57.18 40.75 49.72L40.16 42.26C40.16 38.26 36.92 35.02 32.92 35.02C28.92 35.02 25.68 38.26 25.68 42.26L25.09 49.72C24.5 57.18 17.21 54.9 17.21 54.9C17.21 54.9 11.8 52.48 16.33 47.95L18.43 45.85C21.11 43.17 21.11 38.82 18.43 36.13C15.75 33.45 11.4 33.45 8.71001 36.13L2.08001 42.76C-0.599993 45.44 -0.599993 49.79 2.08001 52.48C2.08001 52.48 11.19 62.89 26.27 59.69C27.59 61.23 29.75 62.21 32.91 62.21C36.06 62.21 38.23 61.23 39.55 59.69C54.63 62.89 63.74 52.48 63.74 52.48C66.45 49.79 66.44 45.44 63.76 42.76Z" fill="#A6B0BA"/>
<path d="M23.68 31.6C23.68 32.63 22.85 33.46 21.82 33.46C20.79 33.46 19.96 32.63 19.96 31.6C19.96 30.57 20.79 29.74 21.82 29.74C22.84 29.74 23.68 30.58 23.68 31.6Z" fill="#173655"/>
<path d="M46.22 31.6C46.22 32.63 45.39 33.46 44.36 33.46C43.33 33.46 42.5 32.63 42.5 31.6C42.5 30.57 43.33 29.74 44.36 29.74C45.39 29.74 46.22 30.58 46.22 31.6Z" fill="#173655"/>
<path d="M49.28 25.1C49.28 26.34 48.27 27.35 47.03 27.35H41.7C40.46 27.35 39.45 26.34 39.45 25.1C39.45 23.85 40.46 22.85 41.7 22.85H47.03C48.27 22.84 49.28 23.85 49.28 25.1Z" fill="#A6B0BA"/>
<path d="M26.74 25.1C26.74 26.34 25.73 27.35 24.49 27.35H19.16C17.92 27.35 16.91 26.34 16.91 25.1C16.91 23.85 17.92 22.85 19.16 22.85H24.49C25.73 22.84 26.74 23.85 26.74 25.1Z" fill="#A6B0BA"/>
<path d="M36.79 40.45C36.79 42.06 35.06 44.71 32.93 44.71C30.8 44.71 29.07 42.05 29.07 40.45C29.07 38.84 30.8 37.54 32.93 37.54C35.06 37.54 36.79 38.84 36.79 40.45Z" fill="#173655"/>
<path d="M34.78 48.49C34.78 49.52 33.95 49.85 32.92 49.85C31.89 49.85 31.06 49.52 31.06 48.49C31.06 47.46 31.89 47.63 32.92 47.63C33.95 47.63 34.78 47.46 34.78 48.49Z" fill="#173655"/>
</g>
<defs>
<clipPath id="clip0">
<rect width="66.44" height="62.2" fill="white"/>
</clipPath>
</defs>
</svg>
