<svg width="17" height="19" viewBox="0 0 17 19" fill="none" xmlns="http://www.w3.org/2000/svg">
<path d="M2.33938 10.5411V3.33918C3.08934 4.36725 3.91255 6.00557 3.9104 8.24362V8.24364C3.90932 9.59385 3.04229 10.2382 2.33938 10.5411ZM2.06797 1.02274C1.84984 0.862906 1.55202 0.830822 1.30051 0.936L2.06797 1.02274ZM1.30044 0.936027C1.04734 1.04176 0.875 1.27322 0.875 1.5387V11.434V11.434V11.434V11.4341V11.4341V11.4341V11.4342V11.4342V11.4342V11.4343V11.4343V11.4343V11.4344V11.4344V11.4344V11.4345V11.4345V11.4345V11.4346V11.4346V11.4346V11.4347V11.4347V11.4347V11.4348V11.4348V11.4348V11.4349V11.4349V11.4349V11.435V11.435V11.435V11.4351V11.4351V11.4351V11.4352V11.4352V11.4352V11.4353V11.4353V11.4353V11.4354V11.4354V11.4354V11.4355V11.4355V11.4355V11.4356V11.4356V11.4356V11.4357V11.4357V11.4357V11.4358V11.4358V11.4358V11.4359V11.4359V11.436V11.436V11.436V11.4361V11.4361V11.4361V11.4362V11.4362V11.4362V11.4363V11.4363V11.4363V11.4364V11.4364V11.4364V11.4365V11.4365V11.4365V11.4366V11.4366V11.4366V11.4367V11.4367V11.4367V11.4368V11.4368V11.4368V11.4369V11.4369V11.4369V11.437V11.437V11.437V11.4371V11.4371V11.4371V11.4372V11.4372V11.4372V11.4373V11.4373V11.4373V11.4374V11.4374V11.4374V11.4375V11.4375V11.4375V11.4376V11.4376V11.4376V11.4377V11.4377V11.4377V11.4378V11.4378V11.4378V11.4379V11.4379V11.4379V11.438V11.438V11.4381V11.4381V11.4381V11.4382V11.4382V11.4382V11.4383V11.4383V11.4383V11.4384V11.4384V11.4384V11.4385V11.4385V11.4385V11.4386V11.4386V11.4386V11.4387V11.4387V11.4387V11.4388V11.4388V11.4388V11.4389V11.4389V11.4389V11.439V11.439V11.439V11.4391V11.4391V11.4391V11.4392V11.4392V11.4392V11.4393V11.4393V11.4393V11.4394V11.4394V11.4394V11.4395V11.4395V11.4395V11.4396V11.4396V11.4396V11.4397V11.4397V11.4397V11.4398V11.4398V11.4398V11.4399V11.4399V11.44V11.44V11.44V11.4401V11.4401V11.4401V11.4402V11.4402V11.4402V11.4403V11.4403V11.4403V11.4404V11.4404V11.4404V11.4405V11.4405V11.4405V11.4406V11.4406V11.4406V11.4407V11.4407V11.4407V11.4408V11.4408V11.4408V11.4409V11.4409V11.4409V11.441V11.441V11.441V11.4411V11.4411V11.4411V11.4412V11.4412V11.4412V11.4413V11.4413V11.4413V11.4414V11.4414V11.4414V11.4415V11.4415V11.4415V11.4416V11.4416V11.4417V11.4417V11.4417V11.4418V11.4418V11.4418V11.4419V11.4419V11.4419V11.442V11.442V11.442V11.4421V11.4421V11.4421V11.4422V11.4422V11.4422V11.4423V11.4423V11.4423V11.4424V11.4424V11.4424V11.4425V11.4425V11.4425V11.4426V11.4426V11.4426V11.4427V11.4427V11.4427V11.4428V11.4428V11.4428V11.4429V11.4429V11.4429V11.443V11.443V11.443V11.4431V11.4431V11.4431V11.4432V11.4432V11.4432V11.4433V11.4433V11.4434V11.4434V11.4434V11.4435V11.4435V11.4435V11.4436V11.4436V11.4436V11.4437V11.4437V11.4437V11.4438V11.4438V11.4438V11.4439V11.4439V11.4439V11.444V11.444V11.444V11.4441V11.4441V11.4441V11.4442V11.4442V11.4442V11.4443V11.4443V11.4443V11.4444V11.4444V11.4444V11.4445V11.4445V11.4445V11.4446V11.4446V11.4446V11.4447V11.4447V11.4447V11.4448V11.4448V11.4448V11.4449V11.4449V11.4449V11.445V11.445V11.4451V11.4451V11.4451V11.4452V11.4452V11.4452V11.4453V11.4453V11.4453V11.4454V11.4454V11.4454V11.4455V11.4455V11.4455V11.4456V11.4456V11.4456V11.4457V11.4457V11.4457V11.4458V11.4458V11.4458V11.4459V11.4459V11.4459V11.446V11.446V11.446V11.4461V11.4461V11.4461V11.4462V11.4462V11.4462V11.4463V11.4463V11.4463V11.4464V11.4464V11.4464V11.4465V11.4465V11.4465V11.4466V11.4466V11.4466V11.4467V11.4467V11.4467V11.4468V11.4468V11.4469V11.4469V11.4469V11.447V11.447V11.447V11.4471V11.4471V11.4471V11.4472V11.4472V11.4472V11.4473V11.4473V11.4473V11.4474V11.4474V11.4474V11.4475V11.4475V11.4475V11.4476V11.4476V11.4476V11.4477V11.4477V11.4477V11.4478V11.4478V11.4478V11.4479V11.4479V11.4479V11.448V11.448V11.448V11.4481V11.4481V11.4481V11.4482V11.4482V11.4482V11.4483V11.4483V11.4483V11.4484V11.4484V11.4484V11.4485V11.4485V11.4485V11.4486V11.4486V11.4486V11.4487V11.4487V11.4487V11.4488V11.4488V11.4489V11.4489V11.4489V11.449V11.449V11.449V11.4491V11.4491V11.4491V11.4492V11.4492V11.4492V11.4493V11.4493V11.4493V11.4494V11.4494V11.4494V11.4495V11.4495V11.4495V11.4496V11.4496V11.4496V11.4497V11.4497V11.4497V11.4498V11.4498V11.4498V11.4499V11.4499V11.4499V11.45V11.45V11.45V11.4501V11.4501V11.4501V11.4502V11.4502V11.4502V11.4503V11.4503V11.4503V11.4504V11.4504V11.4504V11.4505V11.4505V11.4505V11.4506V11.4506V11.4506V11.4507V11.4507V11.4507V11.4508V11.4508V11.4508V11.4509V11.4509V11.4509V11.451V11.451V11.451V11.4511V11.4511V11.4511V11.4512V11.4512V11.4512V11.4513V11.4513V18.203C0.875 18.5832 1.21732 18.8667 1.60722 18.8667C1.99711 18.8667 2.33944 18.5833 2.33944 18.203V11.9697C3.62398 11.6064 5.373 10.5367 5.37484 8.24468L1.30044 0.936027ZM5.37484 8.24466C5.37927 3.50732 2.21252 1.12864 2.06799 1.02276L5.37484 8.24466Z" fill="#D96060" stroke="#D96060" stroke-width="0.25"/>
<path d="M15.2304 0.875113C14.8406 0.875113 14.4981 1.15857 14.4981 1.53877V4.07822H13.5024V1.53871C13.5024 1.15859 13.1601 0.875061 12.7702 0.875061C12.3803 0.875061 12.0379 1.15852 12.0379 1.53871V4.07817H11.0422V1.53871C11.0422 1.1586 10.6999 0.875061 10.31 0.875061C9.92003 0.875061 9.5777 1.15852 9.5777 1.53871V4.74177V6.40546C9.5777 7.76041 10.6393 8.8817 12.0378 9.17557V18.2029C12.0378 18.5831 12.3801 18.8666 12.7701 18.8666C13.1599 18.8666 13.5023 18.5832 13.5023 18.2029V9.17562C14.9007 8.88175 15.9624 7.76051 15.9624 6.40551V4.74182V1.53876C15.9624 1.53875 15.9624 1.53873 15.9624 1.53871C15.9625 1.15862 15.6202 0.875113 15.2304 0.875113ZM14.4981 6.40556C14.4981 6.40556 14.4981 6.40557 14.4981 6.40557C14.4981 7.22929 13.7374 7.92435 12.7702 7.92435C11.803 7.92435 11.0422 7.22932 11.0422 6.40556V5.40542H14.498L14.4981 6.40556Z" fill="#D96060" stroke="#D96060" stroke-width="0.25"/>
</svg>
