

<svg width="11" height="16" viewBox="0 0 11 16" fill="none" xmlns="http://www.w3.org/2000/svg">
<path d="M10.5714 5.14288C10.5714 6.45835 10.1324 7.6027 9.25445 8.57591C8.37647 9.54913 7.29165 10.1072 5.99998 10.25V12.5714H7.99998C8.08332 12.5714 8.15177 12.5982 8.20534 12.6518C8.25891 12.7054 8.2857 12.7738 8.2857 12.8572V13.4286C8.2857 13.5119 8.25891 13.5804 8.20534 13.6339C8.15177 13.6875 8.08332 13.7143 7.99998 13.7143H5.99998V15.7143C5.99998 15.7976 5.9732 15.8661 5.91963 15.9197C5.86606 15.9732 5.7976 16 5.71427 16H5.14284C5.05951 16 4.99106 15.9732 4.93748 15.9197C4.88391 15.8661 4.85713 15.7976 4.85713 15.7143V13.7143H2.85713C2.77379 13.7143 2.70534 13.6875 2.65177 13.6339C2.5982 13.5804 2.57141 13.5119 2.57141 13.4286V12.8572C2.57141 12.7738 2.5982 12.7054 2.65177 12.6518C2.70534 12.5982 2.77379 12.5714 2.85713 12.5714H4.85713V10.25C3.96427 10.1548 3.15623 9.84824 2.43302 9.33038C1.70981 8.81252 1.15623 8.14585 0.772306 7.33038C0.388377 6.5149 0.232127 5.64585 0.303556 4.72324C0.369032 3.92562 0.608615 3.18455 1.02231 2.50002C1.436 1.8155 1.97766 1.25597 2.64731 0.821451C3.31695 0.386927 4.0476 0.125023 4.83927 0.0357368C5.85117 -0.0773584 6.80058 0.0833559 7.68748 0.51788C8.57439 0.952403 9.27677 1.58336 9.79463 2.41074C10.3125 3.23812 10.5714 4.14883 10.5714 5.14288ZM1.42856 5.14288C1.42856 6.24407 1.81992 7.18603 2.60266 7.96877C3.3854 8.75151 4.32736 9.14288 5.42856 9.14288C6.52975 9.14288 7.47171 8.75151 8.25445 7.96877C9.03719 7.18603 9.42856 6.24407 9.42856 5.14288C9.42856 4.04169 9.03719 3.09972 8.25445 2.31699C7.47171 1.53425 6.52975 1.14288 5.42856 1.14288C4.32736 1.14288 3.3854 1.53425 2.60266 2.31699C1.81992 3.09972 1.42856 4.04169 1.42856 5.14288Z" fill="#A6B0BA"/>
</svg>
