<svg width="16" height="16" viewBox="0 0 16 16" fill="none" xmlns="http://www.w3.org/2000/svg">
<path d="M12.7933 7.9238C12.7933 7.58852 12.5249 7.31691 12.1942 7.31691H8.52798V3.65614V3.65603C8.52798 3.31962 8.25502 3.04676 7.91883 3.04676C7.58242 3.04676 7.30946 3.31962 7.30946 3.65603V7.92143C7.30946 8.25795 7.58242 8.5308 7.91883 8.5308H12.1945C12.5249 8.5308 12.7933 8.25908 12.7933 7.9238ZM14.6229 7.91996C14.6229 11.6225 11.6218 14.624 7.92007 14.624C4.2181 14.624 1.21728 11.6225 1.21728 7.91996C1.21728 4.21742 4.2181 1.21593 7.92007 1.21593C11.6218 1.21593 14.6229 4.21742 14.6229 7.91996ZM15.8399 7.91996C15.8399 3.54585 12.2941 0 7.92007 0C3.54585 0 0 3.54585 0 7.91996C0 12.2941 3.54585 15.8399 7.92007 15.8399C12.2941 15.8399 15.8399 12.2941 15.8399 7.91996Z" fill="#60D99F"/>
</svg>
