<svg width="60" height="60" viewBox="0 0 60 60" fill="none" xmlns="http://www.w3.org/2000/svg">
<circle cx="30" cy="30" r="30" fill="#FFEAEA"/>
<path d="M41 46.001H18.0438C17.4675 46.001 17 45.5335 17 44.9572V15.0447C17 14.4685 17.4675 14.001 18.0438 14.001H32.6525C32.9288 14.001 33.1944 14.111 33.39 14.3066L41.7375 22.6547C41.9331 22.8504 42.0431 23.116 42.0431 23.3922V44.9572C42.0438 45.5335 41.5763 46.001 41 46.001Z" fill="#FF9F9F"/>
<path d="M41.7378 22.6547L33.3896 14.3066C33.194 14.111 32.9284 14.001 32.6515 14.001H31.6084V23.3922C31.6084 23.9685 32.0759 24.436 32.6521 24.436H42.0434V23.3922C42.0434 23.1153 41.9334 22.8504 41.7378 22.6547Z" fill="white"/>
<path d="M22.2176 31.3927C22.794 31.3927 23.2613 30.9254 23.2613 30.3489C23.2613 29.7725 22.794 29.3052 22.2176 29.3052C21.6411 29.3052 21.1738 29.7725 21.1738 30.3489C21.1738 30.9254 21.6411 31.3927 22.2176 31.3927Z" fill="white"/>
<path d="M22.2176 35.5665C22.794 35.5665 23.2613 35.0992 23.2613 34.5228C23.2613 33.9463 22.794 33.479 22.2176 33.479C21.6411 33.479 21.1738 33.9463 21.1738 34.5228C21.1738 35.0992 21.6411 35.5665 22.2176 35.5665Z" fill="white"/>
<path d="M22.2176 39.7403C22.794 39.7403 23.2613 39.273 23.2613 38.6966C23.2613 38.1201 22.794 37.6528 22.2176 37.6528C21.6411 37.6528 21.1738 38.1201 21.1738 38.6966C21.1738 39.273 21.6411 39.7403 22.2176 39.7403Z" fill="white"/>
<path d="M36.8264 39.7403H26.3914C25.8152 39.7403 25.3477 39.2728 25.3477 38.6966C25.3477 38.1203 25.8152 37.6528 26.3914 37.6528H36.8264C37.4027 37.6528 37.8702 38.1203 37.8702 38.6966C37.8695 39.2728 37.402 39.7403 36.8264 39.7403Z" fill="white"/>
<path d="M36.8259 35.566H26.3909C25.8147 35.566 25.3472 35.0985 25.3472 34.5223C25.3472 33.946 25.8147 33.4785 26.3909 33.4785H36.8259C37.4022 33.4785 37.8697 33.946 37.8697 34.5223C37.869 35.0991 37.4015 35.566 36.8259 35.566Z" fill="white"/>
<path d="M36.8259 31.3922H26.3909C25.8147 31.3922 25.3472 30.9247 25.3472 30.3484C25.3472 29.7722 25.8147 29.3047 26.3909 29.3047H36.8259C37.4022 29.3047 37.8697 29.7722 37.8697 30.3484C37.869 30.9247 37.4015 31.3922 36.8259 31.3922Z" fill="white"/>
</svg>
