<svg width="26" height="22" viewBox="0 0 26 22" fill="none" xmlns="http://www.w3.org/2000/svg">
<path d="M15.3363 7.0006L15.33 6.99555L15.3235 6.99091C15.168 6.88075 14.9766 6.82825 14.786 6.83821H13.2964L14.8431 5.30639L14.8438 5.30573L15.0285 5.12416L15.0343 5.11843L15.0398 5.11233L15.135 5.00566L15.1352 5.00589L15.1435 4.99563C15.19 4.9376 15.2285 4.87385 15.2578 4.80585C15.2922 4.72808 15.3111 4.64479 15.3135 4.56011C15.3339 4.32063 15.1966 4.10857 14.9928 4.00358L14.9829 3.99847L14.9725 3.99427C14.7755 3.91411 14.5609 3.87755 14.3465 3.88694H11.8989C11.7176 3.87771 11.5357 3.92612 11.3858 4.02791L11.3856 4.02765L11.3756 4.03521C11.2312 4.14424 11.1402 4.31424 11.146 4.5017C11.1466 4.6046 11.1661 4.71395 11.2259 4.81066C11.2902 4.91461 11.3869 4.98111 11.4973 5.01282L11.4973 5.01294L11.5052 5.01494C11.6895 5.06142 11.8805 5.08192 12.0715 5.07587H13.0994L12.8246 5.34929L12.2701 5.88105L12.2701 5.88104L12.2679 5.88324L11.6215 6.51883L11.6215 6.51882L11.6206 6.51969C11.3974 6.74141 11.2476 6.89231 11.1744 6.96963L11.1744 6.96962L11.1726 6.97148C10.9124 7.25188 10.9501 7.67019 11.2431 7.90879L11.2523 7.91622L11.262 7.92276C11.4396 8.04143 11.655 8.09728 11.8696 8.08492H14.7802C14.9703 8.09612 15.1617 8.04623 15.319 7.93975L15.3257 7.93524L15.3321 7.93032C15.4725 7.82151 15.5612 7.65554 15.5593 7.47247C15.5643 7.28599 15.4774 7.11492 15.3363 7.0006Z" fill="#D96060" stroke="#D96060" stroke-width="0.5"/>
<path d="M19.7642 9.26665L19.77 9.27132C19.8932 9.37031 19.9708 9.51927 19.9687 9.68345C19.9715 9.84449 19.8957 9.99075 19.7751 10.0877L19.7664 10.0947L19.7572 10.1008C19.6227 10.1906 19.4606 10.2323 19.2998 10.2229H16.9909C16.8108 10.2336 16.6296 10.1874 16.4793 10.0882L16.4662 10.0795L16.4542 10.0693C16.2138 9.86291 16.1816 9.51238 16.3938 9.27044C16.394 9.27032 16.3941 9.27019 16.3942 9.27006L16.582 9.43509C16.6388 9.36992 16.7573 9.24841 16.9377 9.07062L19.7642 9.26665ZM19.7642 9.26665L19.7581 9.26233C19.6236 9.16691 19.4585 9.12229 19.2948 9.13176H18.2265L19.3728 7.99544L19.5224 7.84944L19.5226 7.84965L19.5308 7.84089L19.626 7.73866L19.6315 7.73273L19.6366 7.72645C19.6771 7.67687 19.7108 7.62225 19.7364 7.56372C19.767 7.49662 19.7847 7.42425 19.7878 7.34996C19.8082 7.13638 19.6874 6.94764 19.5096 6.8538L19.4987 6.84805L19.4873 6.84339C19.3232 6.77654 19.1447 6.74608 18.9663 6.7538H16.9934C16.839 6.74759 16.684 6.78979 16.5559 6.87758L16.5558 6.87741L16.5477 6.88341C16.4198 6.97884 16.3377 7.12941 16.342 7.29679C16.3425 7.38461 16.3595 7.48044 16.4123 7.56715C16.4687 7.65995 16.5534 7.72097 16.6493 7.75247L16.6583 7.75544L16.6676 7.75772C16.8193 7.79502 16.9763 7.8109 17.1331 7.80495H17.8314L17.6934 7.94218L17.6934 7.94215L17.6902 7.94542L17.2601 8.38901M19.7642 9.26665L17.2601 8.38901M17.2601 8.38901L16.7611 8.8937L17.2601 8.38901Z" fill="#D96060" stroke="#D96060" stroke-width="0.5"/>
<path d="M25.0268 6.77392L25.0205 6.76887L25.014 6.76423C24.8586 6.65408 24.6672 6.60157 24.4766 6.61154H22.9719L24.5186 5.07971L24.5193 5.07905L24.704 4.89747L24.7042 4.89764L24.7115 4.88973L24.8318 4.76083L24.8382 4.754L24.844 4.74672C24.8905 4.68869 24.9291 4.62494 24.9583 4.55693C24.9927 4.47916 25.0117 4.39587 25.014 4.31119C25.0344 4.07171 24.8972 3.85966 24.6933 3.75467L24.6834 3.74956L24.6731 3.74535C24.476 3.66517 24.2614 3.6287 24.047 3.63802H21.5744C21.3931 3.62879 21.2111 3.6772 21.0612 3.77899L21.0611 3.77873L21.0511 3.7863C20.9067 3.89533 20.8157 4.06532 20.8214 4.25278C20.822 4.35569 20.8416 4.46504 20.9014 4.56174C20.9657 4.6657 21.0624 4.73219 21.1728 4.7639L21.1727 4.76403L21.1807 4.76603C21.365 4.81251 21.556 4.83301 21.7469 4.82695H22.7761L22.4935 5.1109L21.9534 5.64322L21.9532 5.64342L21.307 6.27881L21.307 6.27881L21.3061 6.27968C21.0829 6.5014 20.9331 6.6523 20.8599 6.72962L20.8598 6.72961L20.8581 6.73147C20.5979 7.01187 20.6356 7.43018 20.9286 7.66878L20.9377 7.67621L20.9475 7.68275C21.1251 7.80142 21.3405 7.85728 21.5551 7.84492H24.4559C24.6464 7.86293 24.8404 7.81925 25.0022 7.71788L25.0127 7.71127L25.0226 7.70365C25.163 7.59484 25.2517 7.42887 25.2498 7.2458C25.2548 7.05931 25.168 6.88825 25.0268 6.77392Z" fill="#D96060" stroke="#D96060" stroke-width="0.5"/>
<path d="M2.25794 10.5981C2.25697 15.654 6.88672 19.8028 12.6636 19.8037C16.0396 19.7939 19.177 18.344 21.1193 15.9485C20.2719 16.1159 19.4059 16.2006 18.5366 16.2006C11.9881 16.2009 6.62673 11.4858 6.62641 5.60814M2.25794 10.5981L6.87641 5.60812M2.25794 10.5981C2.25851 7.4651 4.06257 4.54882 7.03671 2.85813M2.25794 10.5981L7.15039 2.50979C7.11021 2.62537 7.07232 2.7415 7.03671 2.85813M6.62641 5.60814L6.87641 5.60812M6.62641 5.60814C6.62641 5.60825 6.62641 5.60837 6.62641 5.60849L6.87641 5.60812M6.62641 5.60814C6.62508 4.67808 6.76344 3.75328 7.03671 2.85813M6.87641 5.60812C6.87496 4.61743 7.03638 3.63248 7.35495 2.68427C7.24744 2.74068 7.14135 2.79864 7.03671 2.85813M22.5896 14.351C22.7796 14.2816 22.998 14.3222 23.1408 14.4532L22.5896 14.351ZM22.5896 14.351C17.1589 16.3453 10.9339 14.0567 8.68573 9.23912L22.5896 14.351ZM23.3117 14.2708L23.3098 14.2691C23.0946 14.0715 22.7768 14.0165 22.5038 14.1162L22.5034 14.1163C17.1778 16.072 11.0983 13.8177 8.91228 9.1334C7.80397 6.75839 7.87046 4.08157 9.0966 1.75143C9.29307 1.38198 9.09992 0.965825 8.7336 0.812134C8.54681 0.733743 8.33353 0.72951 8.14368 0.799552C2.07409 3.01127 -0.866279 9.19637 1.65031 14.631C4.15789 20.0461 11.1126 22.6035 17.1717 20.3956C19.9403 19.3867 22.1861 17.4852 23.4525 15.0626C23.5942 14.7927 23.5307 14.4761 23.3117 14.2708Z" fill="#D96060" stroke="#D96060" stroke-width="0.5"/>
</svg>
