<svg width="26" height="19" viewBox="0 0 26 19" fill="none" xmlns="http://www.w3.org/2000/svg">
<path d="M23.7248 1.0368L23.7252 1.0368C24.06 1.0368 24.3206 1.10173 24.522 1.21154C24.7243 1.32178 24.8601 1.47358 24.95 1.63596C25.125 1.95185 25.1251 2.30673 25.1251 2.46972V2.47476V2.4748V10.9735C25.1251 10.9785 25.1248 10.9827 25.1246 10.9855L25.1245 10.9868C25.124 11.0044 25.1227 11.0224 25.1202 11.0407L25.1199 11.0443C25.1197 11.0455 25.1195 11.047 25.1193 11.0489C25.1191 11.0507 25.1188 11.0527 25.1185 11.0549C25.1185 11.0549 25.1184 11.0549 25.1184 11.055L23.7248 1.0368ZM23.7248 1.0368L23.7016 1.03688L23.701 1.03688M23.7248 1.0368L23.701 1.03688M23.701 1.03688C22.5464 1.04696 21.0402 1.10439 19.7136 1.46881M23.701 1.03688L19.7136 1.46881M7.27557 17.1011C5.91307 17.0202 4.44375 15.9883 2.9036 14.0941L2.99985 14.0159L2.90359 14.0941C1.75468 12.681 0.976296 11.2916 0.942509 11.231L0.942224 11.2304C0.938616 11.2239 0.935839 11.218 0.934279 11.2147L0.931687 11.2092L0.930784 11.2074L0.930799 11.2074L0.927675 11.2011L7.27557 17.1011ZM7.27557 17.1011C9.14073 18.0357 10.7131 18.3858 13 18.3858C14.2776 18.3858 15.3342 18.2764 16.3454 18.0154C16.3661 18.0111 16.3876 18.0058 16.4094 17.9989C17.1818 17.7943 17.9272 17.5006 18.7244 17.1012C20.0869 17.0202 21.5562 15.9884 23.0964 14.0942C24.2439 12.6828 25.0217 11.295 25.0573 11.2313M7.27557 17.1011L25.0571 11.2315C25.0572 11.2315 25.0572 11.2314 25.0573 11.2313M25.0573 11.2313C25.059 11.2283 25.0605 11.2253 25.0618 11.2227C25.0636 11.2193 25.0649 11.2164 25.0658 11.2145L25.0669 11.212L25.0677 11.2103C25.0682 11.2094 25.0683 11.2092 25.0683 11.2092L25.0688 11.2082C25.0694 11.2069 25.0742 11.1975 25.0777 11.1897C25.0858 11.1721 25.0932 11.1536 25.0994 11.1342L25.0573 11.2313ZM2.29897 1.03688V1.03688C3.45352 1.04696 4.95991 1.10443 6.28644 1.46881L2.29897 1.03688ZM2.29897 1.03688L2.29833 1.03688M2.29897 1.03688L2.29833 1.03688M2.29833 1.03688L2.27517 1.0368H2.27472M2.29833 1.03688L2.27472 1.0368M2.27472 1.0368C1.93995 1.0368 1.67936 1.10173 1.47794 1.21154C1.27572 1.32178 1.13994 1.47359 1.04999 1.63596C0.874942 1.95199 0.874982 2.30702 0.875 2.46995L0.875 2.4748V10.9735C0.875 10.9794 0.875396 10.9847 0.875732 10.9881C0.876193 11.0064 0.877703 11.0242 0.879897 11.0414L0.879839 11.0414M2.27472 1.0368L0.879839 11.0414M0.879839 11.0414L0.880162 11.0434M0.879839 11.0414L0.880162 11.0434M0.880162 11.0434C0.880168 11.0434 0.880175 11.0435 0.880184 11.0436M0.880162 11.0434L0.880184 11.0436M0.880184 11.0436C0.880302 11.0447 0.880713 11.0488 0.881316 11.053L0.881297 11.053L0.881645 11.0552C0.885233 11.0775 0.890243 11.1006 0.897356 11.1242M0.880184 11.0436L0.896841 11.1224C0.897011 11.123 0.897183 11.1236 0.897356 11.1242M0.897356 11.1242C0.898478 11.128 0.899612 11.1312 0.900289 11.1331C0.906477 11.1522 0.913746 11.1708 0.921878 11.1889C0.921853 11.1888 0.921828 11.1888 0.921802 11.1887L0.897356 11.1242ZM5.92437 2.55732C6.07516 2.59878 6.21782 2.64346 6.35294 2.69135C6.35778 2.69319 6.3618 2.69448 6.36332 2.69497C6.36435 2.69531 6.36488 2.69549 6.36506 2.69555L6.36515 2.69557L6.36541 2.69568C7.34176 3.04444 7.89916 3.55916 8.10745 4.24883L8.22711 4.21269L8.10745 4.24883C8.41978 5.28291 7.986 6.29735 6.68655 7.36424C6.30348 7.67873 5.86984 7.97853 5.40745 8.2655C5.40349 8.26786 5.39991 8.27011 5.39705 8.27194C4.40911 8.88399 3.29717 9.43319 2.27133 9.93959L2.27132 9.93959L2.12508 10.0119V2.4748V2.45969C2.12602 2.30922 2.14095 2.22597 2.15271 2.184C2.15296 2.1831 2.15322 2.18221 2.15347 2.18135C2.17802 2.1776 2.21685 2.17395 2.27467 2.17395L2.28735 2.17399C3.37237 2.18344 4.75586 2.23631 5.92437 2.55732ZM5.92437 2.55732L5.95751 2.43679L5.92437 2.55732ZM15.6717 14.5541L15.6717 14.5541C15.7007 14.2289 16.0136 14.0101 16.3429 14.0332M15.6717 14.5541L16.6873 3.94697C16.6873 3.94698 16.6873 3.94698 16.6873 3.94698C16.3645 5.01592 16.5984 5.96738 17.1633 6.80984C17.7101 7.6252 18.5674 8.34038 19.5312 8.97394C19.3649 9.50729 19.2152 9.95383 19.0798 10.3574C18.5377 11.9727 18.2032 12.9723 17.9517 16.1889C17.5586 16.3798 17.1826 16.5403 16.8095 16.6742C16.8149 15.9277 16.8746 15.1302 16.9177 14.6462C16.9469 14.3185 16.6734 14.0564 16.3429 14.0332M15.6717 14.5541C15.6204 15.1294 15.5459 16.141 15.5612 17.0255C14.7979 17.1822 13.981 17.2487 13.0001 17.2487C10.9827 17.2487 9.6517 16.9678 8.04841 16.1889C7.79687 12.9721 7.46224 11.9723 6.92009 10.3571L6.91981 10.3562C6.78447 9.95294 6.63476 9.50686 6.46872 8.9741C7.43253 8.34052 8.28986 7.62533 8.83661 6.80995C9.37859 6.00167 9.61598 5.09307 9.34927 4.07665C10.0332 3.99896 10.9558 3.93912 11.822 3.92155C12.1527 3.91482 12.4414 3.6677 12.433 3.33979L12.433 3.33977C12.4245 3.0118 12.1218 2.77962 11.7947 2.78468L11.7941 2.78469C10.7216 2.80645 9.58822 2.88829 8.82797 2.99465C8.64334 2.75108 8.41921 2.5307 8.15694 2.33355M15.6717 14.5541L8.15694 2.33355M16.3429 14.0332L16.3342 14.1579L16.3429 14.0332C16.3429 14.0332 16.3429 14.0332 16.3429 14.0332ZM8.15694 2.33355C9.31399 2.11653 10.895 2.0122 13 2.0122C15.1049 2.0122 16.686 2.11656 17.843 2.33351L8.15694 2.33355ZM20.2752 10.6901C20.3814 10.3737 20.4967 10.0297 20.6222 9.6376C21.4643 10.1157 22.3375 10.5469 23.1318 10.939C23.3118 11.0279 23.4862 11.114 23.6559 11.1985C23.3389 11.7134 22.7815 12.5686 22.0914 13.4173L22.1883 13.4962L22.0913 13.4173C21.0464 14.7025 20.0576 15.5234 19.2344 15.8315C19.4694 13.091 19.7661 12.207 20.2737 10.6945L20.2752 10.6901ZM20.2752 10.6901L20.1567 10.6503M20.2752 10.6901L20.2752 10.6901L20.1567 10.6503M20.1567 10.6503C20.2652 10.3271 20.3829 9.97591 20.5113 9.57421L20.1567 10.6503ZM23.875 10.0118V2.47488C23.875 2.31478 23.8594 2.22744 23.8473 2.18413C23.847 2.18319 23.8467 2.18226 23.8465 2.18137C23.8219 2.17764 23.7831 2.174 23.7254 2.174C23.7254 2.174 23.7253 2.174 23.7252 2.174L23.7129 2.17403C22.6278 2.18343 21.2443 2.23632 20.0756 2.55741L20.0755 2.55743C19.9248 2.59875 19.7822 2.64349 19.6471 2.69138C19.6466 2.69155 19.6461 2.69173 19.6456 2.69191L19.6038 2.5741C19.6016 2.57495 19.5994 2.57566 19.5972 2.57637L23.875 10.0118ZM23.875 10.0118L23.7289 9.93959L23.6735 10.0517L23.7289 9.93959C22.7061 9.43471 21.5977 8.88724 20.612 8.27745C20.6065 8.27393 20.6013 8.27081 20.5975 8.26852C20.1333 7.98066 19.698 7.67984 19.3136 7.36428L23.875 10.0118ZM19.7136 1.46881C19.6087 1.49761 19.5068 1.52813 19.4073 1.55998M19.7136 1.46881L19.4073 1.55998M19.4073 1.55998C18.0579 1.08456 16.0556 0.875 13.0001 0.875C9.94455 0.875 7.94205 1.08456 6.59269 1.56002L19.4073 1.55998ZM6.3964 2.57414C6.3984 2.57494 6.40045 2.57561 6.4025 2.57627C6.40416 2.57681 6.40583 2.57735 6.40746 2.57796L6.3964 2.57414ZM2.34106 11.2C2.51175 11.115 2.68719 11.0283 2.8683 10.9389L2.86832 10.9389C3.66251 10.5468 4.5357 10.1157 5.37767 9.6376C5.50314 10.0295 5.6185 10.3734 5.72463 10.6896L5.84313 10.6498L5.72463 10.6896L5.72601 10.6937C6.23412 12.2075 6.53091 13.0917 6.76612 15.8369C5.95045 15.5389 5.08031 14.7705 4.29165 13.8731C3.49338 12.9648 2.79478 11.9434 2.34106 11.2Z" fill="#D96060" stroke="#D96060" stroke-width="0.25"/>
<path d="M5.27158 6.44635C6.15323 6.44635 6.89658 5.80706 6.89658 4.9906C6.89658 4.17414 6.15323 3.53485 5.27158 3.53485C4.38983 3.53485 3.64648 4.17413 3.64648 4.9906C3.64648 5.80707 4.38983 6.44635 5.27158 6.44635ZM5.27158 4.67203C5.49265 4.67203 5.6465 4.82868 5.6465 4.9906C5.6465 5.15252 5.49265 5.30917 5.27158 5.30917C5.0504 5.30917 4.89656 5.1525 4.89656 4.9906C4.89656 4.82873 5.05041 4.67203 5.27158 4.67203Z" fill="#D96060" stroke="#D96060" stroke-width="0.25"/>
<path d="M20.7539 3.53485C19.8721 3.53485 19.1288 4.17413 19.1288 4.9906C19.1288 5.80707 19.8721 6.44635 20.7539 6.44635C21.6356 6.44635 22.379 5.80707 22.379 4.9906C22.379 4.17413 21.6356 3.53485 20.7539 3.53485ZM20.7539 5.30917C20.5327 5.30917 20.3789 5.1525 20.3789 4.9906C20.3789 4.8287 20.5327 4.67203 20.7539 4.67203C20.9751 4.67203 21.1289 4.8287 21.1289 4.9906C21.1289 5.1525 20.9751 5.30917 20.7539 5.30917Z" fill="#D96060" stroke="#D96060" stroke-width="0.25"/>
<path d="M13.3114 2.80176L13.3114 2.80176C13.642 2.82141 13.9189 3.08037 13.8941 3.40817L13.8941 3.40822C13.8704 3.72026 13.5838 3.93757 13.271 3.93762H13.2709C13.259 3.93762 13.2468 3.93733 13.2345 3.93667M13.3114 2.80176L13.2984 2.80111C13.2983 2.8011 13.2982 2.8011 13.2981 2.80109M13.3114 2.80176L13.3102 2.8017M13.3114 2.80176L13.3102 2.8017M13.2345 3.93667C13.2344 3.93666 13.2343 3.93666 13.2342 3.93665L13.2409 3.81183M13.2345 3.93667L13.2355 3.93672L13.2409 3.81183M13.2345 3.93667L13.2219 3.93607L13.2214 3.93605C12.8908 3.9171 12.6131 3.65892 12.637 3.33096L12.637 3.33094C12.6607 3.00601 12.9683 2.78309 13.2981 2.80109M13.2409 3.81183C13.251 3.81237 13.261 3.81262 13.2709 3.81262L13.2285 3.81125L13.2409 3.81183ZM13.2981 2.80109L13.3102 2.8017M13.2981 2.80109L13.3102 2.8017" fill="#D96060" stroke="#D96060" stroke-width="0.25"/>
<path d="M16.5185 12.7619L16.5184 12.7618L17.0522 13.4388L17.0574 13.4025C17.0574 13.4024 17.0575 13.4023 17.0575 13.4022C17.1061 13.076 16.8476 12.8006 16.5185 12.7619ZM16.5039 12.886C16.2302 12.854 15.9787 13.0245 15.9424 13.2674L16.5039 12.886Z" fill="#D96060" stroke="#D96060" stroke-width="0.25"/>
</svg>
