<svg width="14" height="14" viewBox="0 0 14 14" fill="none" xmlns="http://www.w3.org/2000/svg">
<path d="M13.2857 0.142853C13.4405 0.142853 13.5744 0.1994 13.6875 0.312496C13.8006 0.425591 13.8571 0.559519 13.8571 0.714281V4.42857C13.8571 4.5119 13.8304 4.58035 13.7768 4.63392C13.7232 4.6875 13.6548 4.71428 13.5714 4.71428H13C12.9167 4.71428 12.8482 4.6875 12.7946 4.63392C12.7411 4.58035 12.7143 4.5119 12.7143 4.42857V2.08928L9.30357 5.50892C10.0536 6.4375 10.4286 7.50595 10.4286 8.71428C10.4286 9.41071 10.2932 10.0759 10.0223 10.7098C9.75148 11.3437 9.38541 11.8914 8.9241 12.3527C8.46279 12.814 7.91517 13.1801 7.28125 13.4509C6.64732 13.7217 5.98214 13.8571 5.28571 13.8571C4.58928 13.8571 3.9241 13.7217 3.29017 13.4509C2.65625 13.1801 2.10863 12.814 1.64732 12.3527C1.18601 11.8914 0.819936 11.3437 0.549103 10.7098C0.278269 10.0759 0.142853 9.41071 0.142853 8.71428C0.142853 8.01785 0.278269 7.35267 0.549103 6.71875C0.819936 6.08482 1.18601 5.5372 1.64732 5.07589C2.10863 4.61458 2.65625 4.24851 3.29017 3.97767C3.9241 3.70684 4.58928 3.57142 5.28571 3.57142C6.49404 3.57142 7.5625 3.94642 8.49107 4.69642L11.9018 1.28571H9.57142C9.48809 1.28571 9.41964 1.25892 9.36607 1.20535C9.3125 1.15178 9.28571 1.08333 9.28571 0.999996V0.428567C9.28571 0.345234 9.3125 0.276781 9.36607 0.22321C9.41964 0.169638 9.48809 0.142853 9.57142 0.142853H13.2857ZM5.28571 12.7143C6.3869 12.7143 7.32887 12.3229 8.1116 11.5402C8.89434 10.7574 9.28571 9.81547 9.28571 8.71428C9.28571 7.61309 8.89434 6.67113 8.1116 5.88839C7.32887 5.10565 6.3869 4.71428 5.28571 4.71428C4.18452 4.71428 3.24256 5.10565 2.45982 5.88839C1.67708 6.67113 1.28571 7.61309 1.28571 8.71428C1.28571 9.81547 1.67708 10.7574 2.45982 11.5402C3.24256 12.3229 4.18452 12.7143 5.28571 12.7143Z" fill="#A6B0BA"/>
</svg>
